<svg width="40" height="40" viewBox="0 0 40 40" fill="none" xmlns="http://www.w3.org/2000/svg">
<rect width="40" height="40" rx="8" fill="#F5F5FE"/>
<path d="M19.6375 31.6095L8.44344 22.9025C8.30134 22.7919 8.30262 22.5769 8.446 22.468L10.129 21.193C10.2276 21.1183 10.3642 21.1191 10.4623 21.1947L19.6379 28.3104C19.7365 28.3868 19.8748 28.3868 19.9738 28.3104L29.1494 21.1947C29.2471 21.1187 29.3836 21.1179 29.4826 21.193L31.1657 22.468C31.3091 22.5769 31.3103 22.7919 31.1682 22.9025L19.9738 31.6091C19.8748 31.6859 19.7365 31.6859 19.6375 31.6091V31.6095ZM19.6375 25.0758L8.4396 16.3662C8.29878 16.2565 8.29878 16.0436 8.4396 15.9339L19.6375 7.2243C19.7365 7.14748 19.8748 7.14748 19.9738 7.2243L31.1716 15.9339C31.3125 16.0436 31.3125 16.2565 31.1716 16.3662L19.9738 25.0758C19.8748 25.1526 19.7365 25.1526 19.6375 25.0758ZM19.9733 21.7776L26.9653 16.3666C27.107 16.2569 27.107 16.0432 26.9653 15.9335L19.9733 10.5225C19.8748 10.4461 19.7369 10.4461 19.6379 10.5225L12.6459 15.9335C12.5042 16.0432 12.5042 16.2569 12.6459 16.3666L19.6379 21.7776C19.7365 21.854 19.8743 21.854 19.9733 21.7776Z" fill="#000091"/>
</svg>
